<?xml version="1.0" encoding="UTF-8"?>
<svg id="base" xmlns="http://www.w3.org/2000/svg" viewBox="0 0 400 400">
  <path d="M174.935,277.889h-2.352c-13.682,0-25.389,8.442-30.209,20.401l-63.85-100.054c2.142.462,4.368.703,6.647.703,12.359,0,23.058-7.056,28.298-17.367l61.467,96.316Z" fill="none" stroke="#191919" stroke-linecap="round" stroke-linejoin="round" stroke-width="12"/>
  <path d="M227.015,89.004l-110.323,74.498c-1.124-9.765-6.678-18.175-14.606-23.174l109.305-73.825c0,10.311,6.499,19.1,15.624,22.501Z" fill="none" stroke="#191919" stroke-linecap="round" stroke-linejoin="round" stroke-width="12"/>
  <path d="M276.648,195.401l-31.594-16.212c-4.179-2.152-6.636-6.625-6.216-11.298l2.531-27.962c.084-.892.262-1.764.536-2.593,3.139,2.005,7.266,2.278,10.752.347l9.565-5.282-3.287,31.5,17.713,31.5Z" fill="none" stroke="#4f46e5" stroke-linecap="round" stroke-linejoin="round" stroke-width="12"/>
  <path d="M333.159,130.5l-3.087,35.375-15.362-32.329-29.169-14.028,7.507-4.147c3.707-2.048,5.691-6.027,5.387-9.996,1.187.178,2.352.556,3.444,1.113l25.021,12.737c4.19,2.131,6.668,6.594,6.258,11.277Z" fill="none" stroke="#4f46e5" stroke-linecap="round" stroke-linejoin="round" stroke-width="12"/>
  <line x1="269.718" y1="103.306" x2="255.039" y2="80.279" fill="none" stroke="#191919" stroke-linecap="round" stroke-linejoin="round" stroke-width="12"/>
  <line x1="253.548" y1="112.147" x2="239.52" y2="90.149" fill="none" stroke="#191919" stroke-linecap="round" stroke-linejoin="round" stroke-width="12"/>
  <rect x="233.976" y="105.97" width="67.144" height="21.924" rx="10.5" ry="10.5" transform="translate(-23.181 143.983) rotate(-28.923)" fill="none" stroke="#4f46e5" stroke-linecap="round" stroke-linejoin="round" stroke-width="12"/>
  <circle cx="235.388" cy="66.5" r="24" fill="none" stroke="#191919" stroke-linecap="round" stroke-linejoin="round" stroke-width="12"/>
  <circle cx="235.388" cy="66.5" r="6.3" fill="#191919" stroke-width="0"/>
  <circle cx="85.17" cy="167.193" r="31.744" fill="none" stroke="#191919" stroke-linecap="round" stroke-linejoin="round" stroke-width="12"/>
  <circle cx="85.17" cy="167.193" r="8.393" fill="#191919" stroke-width="0"/>
  <line x1="117.724" y1="357.5" x2="230.305" y2="357.5" fill="none" stroke="#191919" stroke-linecap="round" stroke-linejoin="round" stroke-width="12"/>
  <path d="M172.58,277.888h2.868c17.965,0,32.55,14.585,32.55,32.55v47.062h-67.968v-47.062c0-17.965,14.585-32.55,32.55-32.55Z" fill="none" stroke="#191919" stroke-linecap="round" stroke-linejoin="round" stroke-width="12"/>
  <circle cx="174.014" cy="311.838" r="13.584" fill="none" stroke="#4f46e5" stroke-linecap="round" stroke-linejoin="round" stroke-width="12"/>
</svg>