<?xml version="1.0" encoding="UTF-8"?>
<svg id="wallet" xmlns="http://www.w3.org/2000/svg" viewBox="0 0 400 400">
  <path d="M249.43,77.01l-69.97,29.66h-81.27l124.91-60.86c4.96-2.42,10.95-.36,13.37,4.6l12.96,26.6Z" fill="none" stroke="#4f46e5" stroke-linecap="round" stroke-linejoin="round" stroke-width="12"/>
  <path d="M310.52,106.67h-131.06l101.89-43.19c5.09-2.15,10.96.22,13.11,5.31l16.06,37.88Z" fill="none" stroke="#4f46e5" stroke-linecap="round" stroke-linejoin="round" stroke-width="12"/>
  <path d="M350,257.93v58.74c0,11.04-8.95,20-20,20H70c-11.05,0-20-8.96-20-20V126.67c0-11.05,8.95-20,20-20h260c11.05,0,20,8.95,20,20v58.74" fill="none" stroke="#191919" stroke-linecap="round" stroke-linejoin="round" stroke-width="12"/>
  <path d="M274.608,185.407h78.48c7.487,0,13.565,6.078,13.565,13.565v45.39c0,7.487-6.078,13.565-13.565,13.565h-78.48c-20.012,0-36.26-16.248-36.26-36.26h0c0-20.012,16.248-36.26,36.26-36.26Z" fill="none" stroke="#191919" stroke-linecap="round" stroke-linejoin="round" stroke-width="12"/>
  <circle cx="274.532" cy="221.667" r="15.717" fill="none" stroke="#4f46e5" stroke-linecap="round" stroke-linejoin="round" stroke-width="12"/>
</svg>